# Blender v2.82 (sub 7) OBJ File: ''
# www.blender.org
mtllib ColorCube.mtl
o Cube
v 1.000000 1.000000 -1.000000
v 1.000000 -1.000000 -1.000000
v 1.000000 1.000000 1.000000
v 1.000000 -1.000000 1.000000
v -1.000000 1.000000 -1.000000
v -1.000000 -1.000000 -1.000000
v -1.000000 1.000000 1.000000
v -1.000000 -1.000000 1.000000
vt 0.375000 0.500000
vt 0.625000 0.500000
vt 0.625000 0.750000
vt 0.375000 0.750000
vt 0.625000 1.000000
vt 0.375000 1.000000
vt 0.375000 0.250000
vt 0.625000 0.250000
vt 0.375000 0.000000
vt 0.625000 0.000000
vt 0.875000 0.500000
vt 0.875000 0.750000
vt 0.125000 0.500000
vt 0.125000 0.750000
vn 1.0000 0.0000 0.0000
vn 0.0000 0.0000 1.0000
vn 0.0000 0.0000 -1.0000
vn -1.0000 0.0000 0.0000
vn 0.0000 1.0000 0.0000
vn 0.0000 -1.0000 0.0000
usemtl Red
s off
f 2/1/1 1/2/1 3/3/1 4/4/1
usemtl Green
f 4/4/2 3/3/2 7/5/2 8/6/2
usemtl Blue
f 6/7/3 5/8/3 1/2/3 2/1/3
usemtl Yellow
f 8/9/4 7/10/4 5/8/4 6/7/4
usemtl Pink
f 1/2/5 5/11/5 7/12/5 3/3/5
usemtl Cyan
f 6/13/6 2/1/6 4/4/6 8/14/6
